<svg width="222" height="126" viewBox="0 0 222 126" fill="none" xmlns="http://www.w3.org/2000/svg">
<path d="M221.49 25.658C221.6 28.859 221.101 32.052 220.544 35.196C219.945 38.403 219.095 41.559 218.147 44.679C217.129 47.865 215.796 50.943 214.365 53.964C213.704 55.368 212.963 56.729 212.167 58.059C212.569 58.788 212.932 59.98 213.045 60.296C213.483 61.626 213.712 63.011 213.843 64.402C214.013 66.128 214.054 67.86 213.975 69.588C213.882 71.762 213.538 73.92 213.004 76.028C212.323 78.782 211.378 81.518 211.416 84.382C211.436 85.563 211.684 86.713 211.828 87.876C211.931 88.635 211.973 89.401 211.985 90.167C212.038 92.041 211.789 93.909 211.469 95.751C211.038 98.103 210.614 100.486 209.71 102.712C209.002 104.277 208.255 105.842 207.308 107.279C206.587 108.192 204.578 108.475 203.472 108.667C202.746 108.786 202.014 108.883 201.279 108.932C200.874 108.948 200.457 109.003 200.066 108.863C199.461 108.707 198.883 108.463 198.347 108.139C197.902 107.851 197.619 107.573 197.569 107.02C197.478 106.103 198.001 105.222 198.621 104.586C199.105 104.127 199.752 103.913 200.417 103.857C200.529 103.534 200.654 103.215 200.799 102.905C201.224 102.046 201.828 101.289 202.288 100.449L202.289 100.447C202.683 99.755 202.967 98.97 203.059 98.184C203.155 96.913 202.774 95.581 202.004 94.564C201.813 94.339 201.588 94.126 201.338 93.953C201.057 94.632 200.824 95.331 200.506 95.994C200.077 96.839 199.573 97.633 198.967 98.356C198.36 99.047 197.69 99.66 197.028 100.294C195.868 101.377 194.704 102.455 193.536 103.53C193.524 103.541 193.512 103.552 193.5 103.563C193.493 103.58 193.483 103.595 193.47 103.609C193.137 103.945 192.82 104.255 192.509 104.597C192.21 104.93 191.919 105.288 191.521 105.508C191.063 105.74 190.554 105.733 190.054 105.726C189.918 105.724 189.782 105.722 189.649 105.725C188.562 105.718 187.475 105.653 186.389 105.596C185.644 105.551 184.884 105.524 184.161 105.35C183.662 105.224 183.281 104.97 183.061 104.648C183.051 104.645 183.04 104.64 183.03 104.633C182.28 104.161 181.496 103.363 181.617 102.407C181.662 102.135 181.839 101.914 182.022 101.717C182.219 101.506 182.432 101.309 182.665 101.139C183.77 100.264 185.208 100.165 186.534 100.511C186.86 100.575 187.183 100.692 187.51 100.775C187.546 100.714 187.583 100.653 187.62 100.593C188.046 99.902 188.469 99.192 189.028 98.598C190.752 96.743 193.23 95.333 192.078 92.408C191.96 92.122 191.806 91.848 191.61 91.607C191.591 91.606 191.572 91.601 191.555 91.591C190.767 90.973 190.082 90.239 189.258 89.665C185.713 87.128 181.715 84.997 177.345 84.415C176.516 84.303 175.672 84.225 174.839 84.335C173.664 84.494 172.507 84.954 171.661 85.801C170.906 86.534 170.204 87.341 169.787 88.319C169.158 89.709 168.808 91.197 168.359 92.648C167.565 95.18 166.44 97.592 165.547 100.088C164.773 102.114 164.11 104.179 163.378 106.219C162.85 107.501 162.342 108.811 161.565 109.966C160.78 111.224 159.164 111.359 157.816 111.365C156.564 111.376 155.313 111.38 154.061 111.38C154.018 111.38 153.975 111.38 153.932 111.38C153.326 111.376 152.72 111.364 152.119 111.294C151.642 111.247 151.123 111.136 150.834 110.717C150.194 109.779 150.457 108.524 150.874 107.546C151.452 106.407 152.639 105.201 154.028 105.517C154.317 105.567 154.574 105.679 154.818 105.82V105.819C154.961 105.524 155.091 105.19 155.197 104.888C155.426 104.162 155.6 103.419 155.808 102.686C156.056 101.788 156.354 100.89 156.46 99.967C156.674 98.355 156.642 96.726 156.734 95.108C156.786 93.722 157.017 92.34 157.276 90.982C157.335 90.669 157.393 90.356 157.443 90.041C157.375 90.003 157.304 89.967 157.232 89.934C156.534 89.589 155.713 89.588 154.966 89.744C154.168 89.867 153.414 90.301 153.039 91.037C152.559 91.889 152.508 92.886 152.394 93.836C152.243 95.184 152.024 96.529 151.591 97.819C151.147 99.202 150.64 100.588 150.558 102.05C150.507 103.362 150.572 104.698 150.192 105.971C150.104 106.287 150.025 106.649 149.72 106.825C148.405 107.628 146.759 107.586 145.269 107.53L145.286 107.531C144.179 107.482 142.599 107.247 141.859 106.345C141.527 105.752 141.571 104.996 141.773 104.366C142.04 103.612 142.728 103.099 143.377 102.678C143.575 102.544 143.82 102.459 143.965 102.261C144.246 101.7 144.074 101.059 144.01 100.466C143.952 100.062 143.894 99.656 143.792 99.259C143.645 98.723 143.441 98.204 143.291 97.669C142.972 96.576 142.817 95.445 142.607 94.327C142.442 93.432 142.377 92.523 142.364 91.614C142.362 91.579 142.361 91.543 142.36 91.508C142.443 91.272 142.522 91.036 142.596 90.797C142.58 90.203 142.508 89.615 142.256 89.072C141.762 88.198 141.056 87.429 140.325 86.753C139.501 86.01 138.524 85.463 137.694 84.726C137.669 84.703 137.643 84.681 137.618 84.658C137.598 84.665 137.578 84.673 137.559 84.68C137.174 84.43 136.787 84.182 136.391 83.949C135.43 83.401 134.452 82.875 133.548 82.232C132.27 81.298 131.012 80.338 129.79 79.33C128.874 78.592 127.874 77.915 127.203 76.928C126.444 75.896 125.974 74.699 125.423 73.551C125.076 72.838 124.763 72.078 124.192 71.511C123.789 71.096 123.223 70.939 122.703 70.723C122.437 70.614 122.172 70.5 121.915 70.369C120.818 69.854 119.993 68.935 119.256 67.997C118.882 67.53 118.526 67.049 118.192 66.552C117.811 65.97 117.41 65.394 117.148 64.746C116.933 64.208 116.763 63.48 117.344 63.11C117.837 62.742 118.491 62.748 119.07 62.612C120.551 62.353 122.032 61.945 123.548 62.045C124.307 62.083 125.07 62.247 125.831 62.323C125.921 61.995 126.027 61.672 126.149 61.355C127.208 58.661 129.92 56.33 132.517 54.94C132.455 54.56 132.428 54.176 132.448 53.794C132.5 53.001 132.902 52.288 133.317 51.63C133.994 50.569 134.899 49.682 135.608 48.643C135.919 48.198 136.197 47.731 136.497 47.279C136.814 46.854 137.221 46.123 137.85 46.335C138.026 46.414 138.105 46.603 138.188 46.764C138.306 47.003 138.407 47.25 138.497 47.501C139.038 49.063 139.198 50.721 139.474 52.341C139.512 52.544 139.63 52.728 139.831 52.799C140.078 52.888 140.331 52.964 140.58 53.049C141.096 53.222 141.609 53.404 142.124 53.578C142.813 53.258 143.495 52.924 144.164 52.564C146.639 51.241 148.913 49.588 151.222 48.003C155.51 45.1 159.586 41.898 163.874 38.996C165.951 37.65 168.084 36.338 170.417 35.48C171.726 35.001 173.106 34.73 174.495 34.63C178.314 34.342 182.765 35.392 186.232 36.988C187.771 37.693 189.205 38.598 190.609 39.54C191.814 40.341 193.004 41.166 194.165 42.029C195.973 43.374 197.783 44.72 199.504 46.178C201.089 47.546 202.659 48.936 204.166 50.39C204.361 50.197 204.55 49.998 204.732 49.792C206.5 47.826 208.063 45.647 209.247 43.278C210.211 41.41 210.8 39.381 211.354 37.363C211.82 35.691 212.127 33.965 212.338 32.249C212.533 30.636 212.652 29.007 212.558 27.383C212.384 24.288 211.783 21.219 210.831 18.273C210.224 16.265 209.342 14.319 209.07 12.224C208.974 11.36 208.919 10.484 208.991 9.61599C209.148 8.53099 209.438 7.46699 209.768 6.42199C210.04 5.53999 210.469 4.71299 210.947 3.92599C211.67 2.85099 212.862 2.21499 214.01 1.68399C215.325 1.10999 217.504 0.172987 218.93 0.584987C218.938 0.527987 218.981 0.477 219.06 0.479C219.399 0.501 219.633 0.818985 219.643 1.14498C219.685 1.96898 218.816 2.814 218.251 3.346C217.437 4.085 216.411 4.67901 215.912 5.69601C215.566 6.41101 215.571 7.244 215.631 8.018C215.923 10.897 217.727 13.287 218.904 15.85C219.534 17.166 220.023 18.547 220.421 19.95C220.944 21.818 221.376 23.722 221.49 25.658Z" fill="#262626"/>
<path d="M149.581 106.798C149.722 107.286 149.845 107.792 149.838 108.301C149.832 110.055 149.007 112.181 147.571 113.243C146.508 113.995 144.62 113.83 143.349 113.834C141.575 113.796 139.8 113.796 138.027 113.818C136.617 113.867 135.16 113.797 133.847 113.237C133.425 113.058 133.037 112.803 132.701 112.49C132.397 112.205 132.102 111.894 131.764 111.658C130.301 110.635 128.746 109.754 127.235 108.807C126.891 108.588 126.536 108.384 126.191 108.166C125.68 108.508 125.11 108.799 124.479 108.772C123.508 108.79 122.652 108.289 121.81 107.856C121.756 107.942 121.697 108.025 121.633 108.104C121.075 108.755 120.293 109.323 119.397 109.271C118.257 109.212 117.391 108.326 116.782 107.437C115.934 106.299 114.899 105.094 113.427 104.852C111.349 104.546 109.213 104.572 107.122 104.616C103.796 104.714 100.484 105.049 97.166 105.272C96.947 105.289 96.727 105.304 96.508 105.32C97.287 105.845 98.043 106.406 98.787 106.976C99.976 107.873 101.176 108.788 102.531 109.422C103.804 110.012 105.177 110.369 106.541 110.667C108.327 111.052 110.149 111.268 111.921 111.722C113.406 112.142 114.843 112.76 116.116 113.637C116.761 114.078 117.363 114.582 117.898 115.151C118.419 115.716 118.864 116.346 119.302 116.976C119.806 117.719 120.289 118.49 120.587 119.341C120.756 119.876 120.968 120.429 120.937 120.999C120.836 121.866 120.406 122.661 119.944 123.388C118.941 124.994 116.962 125.457 115.179 125.35C114.841 125.336 114.498 125.297 114.171 125.211C113.486 125.557 112.7 125.704 111.577 125.65C110.611 125.601 109.661 125.409 108.715 125.219C107.895 125.05 107.086 124.848 106.308 124.55C106.096 124.594 105.887 124.649 105.677 124.699C105.047 124.844 104.405 124.977 103.756 124.959C101.589 124.892 99.662 123.844 98.146 122.341C97.468 121.689 96.92 120.911 96.268 120.235C94.578 120.558 92.895 120.986 91.166 120.982C88.45 120.976 87.132 119.855 84.88 118.696C84.364 118.445 83.803 118.222 83.251 118.075C82.388 117.873 81.468 117.798 80.597 117.695C75.441 117.165 70.25 117.019 65.102 116.405C61.248 115.97 57.463 115.081 53.615 114.605C51.611 114.338 49.597 114.268 47.585 114.094C45.896 113.941 44.15 113.67 42.707 112.717C42.199 112.384 41.685 112.05 41.24 111.635C40.895 111.268 40.662 110.806 40.473 110.344C40.135 109.468 40.174 108.499 40.336 107.586C39.675 107.572 39.015 107.553 38.355 107.515C35.878 107.373 33.386 107.129 30.987 106.472C29.549 106.066 28.164 105.456 26.848 104.754C25.273 103.902 23.822 102.856 22.345 101.85C21.789 101.838 21.233 101.837 20.679 101.837C18.619 101.882 16.568 101.681 14.53 101.39C13.021 101.176 11.514 100.932 10.032 100.571C8.27699 100.127 6.49799 99.645 4.90499 98.763C4.38699 98.47 3.944 98.069 3.529 97.647C2.671 96.815 1.98999 95.825 1.40799 94.787C0.858994 93.874 0.526991 92.833 0.357991 91.784C0.266991 91.148 0.288985 90.503 0.313985 89.863C0.365985 87.95 0.720984 86.068 0.953984 84.173C1.31298 81.453 1.421 78.708 1.251 75.973C1.126 73.99 1.01598 72.006 0.996983 70.019C0.966983 69.102 0.981987 68.184 1.12899 67.277C1.43599 65.46 2.019 63.666 3.003 62.099C3.414 61.461 3.88399 60.863 4.35799 60.271C5.57399 58.732 6.84999 57.241 8.21599 55.834C9.71099 54.294 11.144 52.68 12.821 51.332C14.469 50.036 16.326 49.028 18.222 48.149C19.643 47.565 21.155 47.15 22.615 46.705C25.495 45.848 28.217 44.48 30.727 42.844C32.913 41.457 34.81 39.691 36.776 38.021C37.583 37.341 38.42 36.7 39.28 36.09C40.886 34.914 42.598 33.863 44.482 33.197C46.899 32.313 49.521 31.962 51.798 30.726C53.193 29.941 54.36 28.851 55.612 27.872C56.533 27.056 57.535 27.007 58.719 27.096C60.237 27.206 61.771 27.46 63.286 27.192C64.998 26.851 66.644 26.243 68.333 25.806C69.545 25.494 70.787 25.292 72.036 25.227C74.05 25.077 76.053 25.399 78.053 25.555C79.163 25.608 80.277 25.494 81.371 25.318C82.365 25.15 83.331 24.845 84.247 24.429C85.31 23.954 86.334 23.379 87.453 23.041C88.878 22.592 90.397 22.401 91.882 22.613C92.95 22.763 94.026 22.956 95.027 23.37C95.872 23.741 96.643 24.255 97.427 24.739C97.744 24.655 98.065 24.585 98.39 24.531C99.255 24.388 100.53 24.289 101.546 24.534C101.58 24.5 101.633 24.488 101.68 24.505C102.205 24.691 102.689 24.977 103.114 25.337C103.765 25.868 104.286 26.536 104.798 27.197C105.136 27.634 105.48 28.088 105.745 28.57C106.567 30.036 107.28 31.565 107.756 33.18C107.973 33.873 108.207 34.566 108.322 35.283C110.397 36.645 112.247 38.366 113.721 40.359C114.6 41.717 115.144 43.262 115.631 44.796C116.207 46.531 116.674 48.297 117.111 50.071C117.427 51.264 117.648 52.486 118.058 53.653C118.389 54.569 118.85 55.447 119.403 56.248C119.921 56.642 120.455 57.016 121 57.371C122.237 58.168 123.517 58.893 124.785 59.638C125.891 60.257 126.93 60.996 127.832 61.89C129.92 63.859 131.372 66.438 131.546 69.329C132.371 69.5 133.152 69.904 133.673 70.575C134.445 71.566 135.056 72.786 134.885 74.074C134.758 75.144 134.243 76.746 132.906 76.61C132.178 76.502 131.473 76.261 130.793 75.984C130.769 75.97 130.735 75.955 130.696 75.938C130.241 77.144 129.8 78.4 128.929 79.373C128.452 79.879 127.797 80.191 127.129 80.357C126.839 80.423 126.544 80.461 126.247 80.487C125.904 80.954 125.576 81.426 125.252 81.909C124.942 82.36 124.627 82.816 124.208 83.174C123.622 83.742 122.926 83.864 122.143 83.91C121.389 83.968 120.63 84.041 119.893 84.215C119.635 84.755 119.338 85.275 118.965 85.747C117.821 87.045 116.27 88.165 114.491 88.263C112.827 88.38 111.161 87.991 109.501 88.02C108.344 88.052 107.181 88.314 106.155 88.857C108.249 89.126 110.34 89.422 112.406 89.859C114.772 90.343 117.07 91.117 119.234 92.191C119.889 92.525 120.534 92.886 121.133 93.314C122.139 94.055 123.093 94.821 124.179 95.433C126.446 96.747 128.874 97.75 131.298 98.734C133.704 99.744 136.156 100.678 138.72 101.197C140.885 101.644 143.134 101.71 145.245 102.402C146.007 102.674 146.737 103.039 147.418 103.476C148.065 103.889 148.665 104.412 148.992 105.121C149.256 105.654 149.421 106.228 149.581 106.798Z" fill="#262626"/>
</svg>
