<svg width="172" height="143" viewBox="0 0 172 143" fill="none" xmlns="http://www.w3.org/2000/svg">
<path d="M117.149 98.168C117.214 99.309 117.253 100.454 117.192 101.596C117.135 102.552 117.012 103.502 116.886 104.451C116.686 106.004 116.417 107.555 115.901 109.037C115.349 110.664 114.978 112.363 114.225 113.915C113.877 114.636 113.484 115.335 113.074 116.023C112.507 116.974 111.959 117.938 111.317 118.842C111.063 119.188 110.794 119.522 110.515 119.848C109.809 121.386 109.104 122.924 108.201 124.359C107.484 125.463 106.873 126.632 106.156 127.736C105.334 128.945 104.558 130.181 103.654 131.327C103.1 132.034 102.431 132.641 101.745 133.216C100.734 134.109 99.43 134.848 98.048 134.426C97.727 134.335 97.383 134.164 97.081 133.937C97.044 133.989 97.006 134.041 96.967 134.091C96.109 135.157 94.713 135.919 93.321 135.628C92.719 135.533 92.162 135.21 91.76 134.757C91.354 134.856 90.934 134.894 90.518 134.84C89.834 134.788 89.12 134.541 88.682 133.988C88.287 133.464 88.277 132.768 88.299 132.139C88.32 131.228 88.559 130.258 89.035 129.457V129.456C89.043 129.442 89.051 129.429 89.059 129.416C89.068 129.401 89.077 129.386 89.087 129.372C89.097 129.356 89.107 129.34 89.117 129.324C89.128 129.306 89.14 129.288 89.152 129.27C89.169 129.245 89.186 129.22 89.202 129.196C89.257 129.116 89.315 129.039 89.376 128.964C86.769 128.944 84.157 128.695 81.618 128.097C80.158 127.729 78.707 127.317 77.293 126.798C76.892 126.666 76.503 126.487 76.113 126.315C76.002 126.47 75.89 126.623 75.778 126.776C75.439 127.267 75.191 127.839 75.006 128.399C74.838 128.939 74.624 129.467 74.498 130.019C74.335 130.648 74.461 131.29 74.463 131.922C73.963 133.586 72.96 134.604 71.136 134.475C70.361 134.427 69.529 134.247 68.944 133.714C68.912 133.81 68.878 133.907 68.844 134.002C68.719 134.412 68.432 134.729 68.093 134.978C67.481 135.471 66.741 135.891 65.93 135.84C65.078 135.786 64.185 135.336 63.543 134.731C62.619 135.332 61.536 135.737 60.434 135.676C59.465 135.637 58.454 135.581 57.578 135.129C56.956 134.824 56.382 134.404 56.155 133.775C56.068 133.773 55.995 133.768 55.953 133.765C55.028 133.681 54.01 133.255 53.596 132.372C53.242 131.564 53.32 130.616 53.639 129.809C53.941 129.053 54.424 129.019 55.032 128.643C55.473 128.316 55.855 127.918 56.282 127.575C57.363 126.764 58.429 125.815 58.859 124.493C59.075 123.769 59.044 122.998 59.061 122.245C57.437 122.097 55.834 121.735 54.3 121.18C52.744 120.643 51.284 119.863 49.815 119.127C49.589 119.011 49.362 118.893 49.135 118.774C49.359 120.201 49.63 121.621 49.943 123.03C50.179 124.234 50.327 125.459 50.349 126.687C50.363 127.455 50.339 128.224 50.164 128.972C49.935 130.044 49.182 130.93 48.273 131.531C48.296 131.547 48.313 131.57 48.322 131.603C48.342 131.677 48.297 131.747 48.227 131.77C48.024 131.836 47.821 131.906 47.636 131.97C47.367 132.067 47.102 132.176 46.835 132.276C45.723 132.662 44.675 133.193 43.592 133.648C43.314 133.764 43.023 133.842 42.73 133.906C42.666 133.938 42.583 133.901 42.554 133.838C41.639 134.087 40.679 134.166 39.733 134.132L39.739 134.133C38.81 134.101 37.978 133.716 37.455 133.094C37.473 133.157 37.443 133.235 37.378 133.258C36.199 133.699 34.929 133.763 33.684 133.748C32.834 133.728 31.963 133.647 31.177 133.299C29.968 132.774 28.548 131.771 28.867 130.268C28.938 129.824 29.112 129.402 29.302 128.996C29.509 128.576 29.719 128.151 30.027 127.796C30.859 126.849 31.948 126.137 32.876 125.284C34.159 124.21 35.185 122.902 35.784 121.381C35.104 118.692 34.14 116.076 33.046 113.526C30.533 107.43 27.774 101.436 25.502 95.242C24.256 91.926 23.075 88.582 22.091 85.178C21.225 82.196 20.553 79.163 19.92 76.124C19.23 72.814 18.674 69.464 18.502 66.083C18.298 61.794 18.7 57.467 19.748 53.301C19.987 52.376 20.273 51.464 20.596 50.566C20.2 50.23 19.815 49.88 19.435 49.525C18.487 48.666 17.593 47.737 16.868 46.68C15.1 44.193 14.223 41.206 13.742 38.222C13.43 36.343 13.191 34.448 13.116 32.544C13.079 31.554 13.077 30.564 13.104 29.574C11.905 29.278 10.74 28.839 9.631 28.291C6.421 26.735 0.205005 22.803 1.004 18.648C1.209 17.71 1.67201 16.81 2.34401 16.121C2.78101 15.688 3.33601 15.405 3.92001 15.227C5.52901 14.713 7.10501 14.102 8.61001 13.348C10.218 12.524 11.757 11.567 13.261 10.566C15.154 9.30699 16.929 7.84499 18.981 6.84399C20.36 6.17699 21.862 5.82199 23.357 5.52699C27.013 4.81499 30.766 4.80799 34.468 4.58899C35.206 4.53999 35.944 4.48298 36.681 4.41998C36.751 4.41498 36.821 4.40899 36.891 4.40899C36.952 4.40899 37.004 4.45099 37.021 4.50599C37.571 4.43599 38.118 4.35299 38.67 4.29599C39.66 4.19199 40.657 4.13799 41.637 3.95999C43.142 3.71299 44.576 3.18599 46.082 2.94899C47.183 2.76299 48.332 2.82699 49.422 3.04299C50.424 3.27999 51.344 3.75399 52.225 4.27499C52.655 3.58899 53.077 2.89498 53.572 2.25298C53.907 1.79498 54.315 1.38999 54.804 1.09799C55.865 0.405986 57.185 0.411985 58.402 0.530985C59.824 0.649985 61.185 1.09099 62.547 1.48999C64.532 2.05999 66.539 2.58399 68.575 2.93799C69.603 3.09299 70.635 3.21999 71.662 3.38299C72.203 3.46299 72.753 3.55798 73.242 3.81498C73.892 4.18798 74.371 4.82399 74.693 5.48999C74.98 6.12399 75.024 6.83198 75.072 7.51698C75.16 8.82698 75.103 10.139 75.049 11.449C74.998 12.749 74.999 14.05 74.966 15.351C74.943 15.761 74.934 16.201 74.713 16.56C74.271 17.067 73.536 17.234 72.886 17.208C72.276 17.224 71.273 16.739 70.478 16.243C70.078 16.952 69.688 17.667 69.355 18.411C68.721 19.905 68.192 21.443 67.488 22.906C67.571 23.099 67.654 23.292 67.733 23.488C68.194 24.589 68.624 25.702 69.091 26.801C69.433 27.613 69.84 28.397 70.152 29.222C70.526 30.249 70.705 31.332 70.822 32.415C70.919 33.407 70.994 34.406 70.973 35.403C70.936 36.283 70.824 37.157 70.685 38.026C70.531 38.908 70.302 39.775 70.067 40.638C69.714 41.958 69.329 43.272 68.822 44.541C68.524 45.225 68.157 45.874 67.767 46.51C68.006 46.777 68.239 47.05 68.459 47.333C69.397 48.497 70.195 49.769 71.174 50.901C71.943 51.755 72.753 52.569 73.548 53.397C74.306 54.195 75.071 54.986 75.882 55.73C77.785 57.346 79.93 58.635 82.017 59.994C82.94 60.609 83.848 61.246 84.765 61.87C85.991 62.656 87.274 63.345 88.543 64.058C89.917 64.859 91.236 65.749 92.602 66.562C94.361 67.626 96.171 68.606 98 69.544C99.076 70.089 100.161 70.618 101.208 71.219C102.154 71.769 103.067 72.395 103.967 73.012C105.087 73.784 106.268 74.483 107.274 75.405C108.799 76.814 109.982 78.544 111.249 80.178C112.226 81.475 112.917 82.952 113.564 84.434C114.118 85.655 114.659 86.882 115.103 88.148C115.552 89.439 115.996 90.737 116.3 92.07C116.743 94.075 117.017 96.12 117.149 98.168Z" fill="#262626"/>
<path d="M171.885 83.39C172.033 83.904 171.867 84.455 171.721 84.953C171.426 85.906 170.964 86.796 170.487 87.669C169.737 89.045 168.855 90.348 167.918 91.602C166.964 92.842 165.951 94.037 164.895 95.191C163.955 96.171 162.959 97.099 161.948 98.006C160.6 99.196 159.185 100.314 157.674 101.291C156.131 102.298 154.505 103.171 152.846 103.973C152.845 104.154 152.843 104.335 152.84 104.516C152.85 108.497 152.15 112.563 153.23 116.465C153.946 119.302 155.751 121.669 157.056 124.245C157.892 125.738 158.29 127.422 158.488 129.11C158.623 130.094 158.661 131.109 158.857 132.085C158.946 132.322 159.078 132.534 159.171 132.768C159.447 133.676 159.263 134.662 158.955 135.538C158.489 136.712 157.208 137.475 155.957 137.374C155.625 137.345 155.292 137.238 155.02 137.042C154.997 137.023 154.971 137.004 154.946 136.984C154.187 137.305 153.356 137.421 152.54 137.335C152.166 137.293 151.783 137.16 151.46 136.965C151.122 137.07 150.627 137.113 150.507 137.102C149.196 137.161 147.991 136.131 148.112 134.773C148.168 134.056 148.568 133.372 149.198 133.014C149.309 132.94 149.792 132.721 150.046 132.74C149.356 131.41 148.209 130.443 147.133 129.433C146.552 128.873 145.963 128.32 145.313 127.84C144.681 127.363 143.998 126.963 143.332 126.537C142.47 125.997 141.627 125.403 140.677 125.027C137.689 123.938 134.449 124.514 131.349 124.573C129.816 124.618 128.26 124.592 126.727 124.429C126.408 126.305 126.165 128.194 125.805 130.062C125.804 130.065 125.804 130.068 125.803 130.071C125.802 130.076 125.801 130.08 125.8 130.085C125.616 131.057 125.37 131.991 125.112 132.942C124.911 133.687 124.755 134.444 124.565 135.193C124.445 135.663 124.289 136.124 124.18 136.597C123.916 137.617 123.788 138.634 123.582 139.661C123.441 140.48 123.276 141.401 122.564 141.927C121.815 142.419 120.79 142.608 119.904 142.539C119.247 142.457 118.492 142.225 118.039 141.716C117.466 142.494 116.401 142.818 115.437 142.667C114.843 142.587 114.238 142.297 113.821 141.858C113.482 141.96 113.12 141.987 112.771 141.942C111.533 141.784 110.45 140.535 110.734 139.267C110.881 138.528 111.494 138.022 111.895 137.425C112.245 136.864 112.599 136.29 112.856 135.68C113.004 135.172 113.024 134.602 113.075 134.085C113.168 132.517 113.058 130.946 112.915 129.386C112.677 126.462 112.333 123.533 111.627 120.684C111.485 120.077 111.331 119.472 111.163 118.871C111.142 118.838 111.122 118.806 111.1 118.774C110.605 118.071 110.001 117.457 109.379 116.869C108.7 116.275 108.049 115.65 107.378 115.047C105.98 113.879 104.519 112.79 103.134 111.606C102.2 110.876 101.178 110.283 100.206 109.609C99.556 109.163 98.951 108.655 98.341 108.156C97.282 107.292 96.197 106.444 95.312 105.395C94.449 104.349 93.574 103.264 92.983 102.038C92.962 102.11 92.933 102.188 92.858 102.22C92.766 102.269 92.666 102.204 92.605 102.134C92.492 102.002 92.391 101.86 92.295 101.715C91.972 101.226 91.674 100.721 91.398 100.205C90.965 99.382 90.56 98.536 90.298 97.642C89.911 96.305 89.707 94.921 89.556 93.54C89.391 92.002 89.358 90.454 89.355 88.908C89.353 86.672 89.249 84.439 89.156 82.206C89.068 79.925 89.034 77.64 88.783 75.371C88.672 73.9 88.384 72.454 88.166 70.997C87.957 69.619 87.906 68.165 87.248 66.909C86.831 66.111 86.186 65.488 85.606 64.818C84.652 63.677 83.639 62.577 82.769 61.37C82.411 60.81 82.283 60.145 82.145 59.504C81.889 58.388 81.957 57.224 82.185 56.109C82.367 55.246 82.746 54.441 83.182 53.679C83.569 52.991 84.016 52.331 84.46 51.682C84.736 51.281 84.998 50.895 85.152 50.434C85.327 49.911 85.435 49.369 85.55 48.831C85.745 47.888 85.793 47.111 86.973 47.043C88.295 46.984 89.608 47.229 90.926 47.233C92.455 47.251 93.983 47.056 95.461 46.669C96.529 46.409 97.551 45.999 98.605 45.694C101.845 44.757 104.775 44.348 108.095 45.242C109.462 45.648 111.043 46.288 112.116 47.323C112.447 46.867 112.815 46.436 113.192 46.029C114.527 44.627 116.16 43.572 117.761 42.505C118.435 42.076 119.083 41.591 119.762 41.178C119.935 41.135 120.038 41.315 120.075 41.459C120.204 41.881 120.268 42.319 120.317 42.756C120.451 43.936 120.503 45.123 120.474 46.31C120.432 48.431 120.34 50.624 119.63 52.636C119.684 52.847 119.733 53.06 119.777 53.273C120.377 54.788 120.47 56.461 120.624 58.071C120.781 59.878 120.831 61.701 121.136 63.492C121.353 64.653 121.727 65.803 122.123 66.906C122.171 67.101 122.439 67.409 122.267 67.575C122.147 67.66 122.01 67.556 121.908 67.487C121.609 67.287 121.325 67.067 121.034 66.856C121.658 68.44 121.898 70.159 122.545 71.732C122.957 72.785 123.595 73.74 124.408 74.524C124.593 74.752 124.957 74.903 124.99 75.218C124.938 75.458 124.628 75.364 124.453 75.35C124.252 75.322 124.052 75.289 123.853 75.247C124.797 76.201 125.881 76.991 127.037 77.666C127.684 77.917 128.334 78.155 128.987 78.386C132.118 79.461 135.194 80.728 138.324 81.795C141.792 82.978 144.591 84.059 147.162 86.797C149.646 89.361 151.301 92.661 152.116 96.123C152.583 96.067 153.049 95.997 153.513 95.916C157.789 95.129 161.746 93.054 165.146 90.39C166.471 89.339 167.67 88.136 168.711 86.804C169.271 86.11 169.798 85.355 170.294 84.623C170.592 84.211 170.827 83.747 171.179 83.379C171.374 83.185 171.768 83.037 171.885 83.39Z" fill="#262626"/>
</svg>
